<!-- Created with Inkscape (http://www.inkscape.org/) --><svg xmlns:rdf="http://www.w3.org/1999/02/22-rdf-syntax-ns#" width="1195.459" xmlns:svg="http://www.w3.org/2000/svg" id="svg2" height="847.5" xmlns:dc="http://purl.org/dc/elements/1.1/" xmlns:cc="http://creativecommons.org/ns#" xmlns="http://www.w3.org/2000/svg" version="1.1">
  <metadata id="metadata3033">
    <rdf:RDF>
      <cc:Work rdf:about="">
        <dc:format>image/svg+xml</dc:format>
        <dc:type rdf:resource="http://purl.org/dc/dcmitype/StillImage"/>
        <dc:title/>
      </cc:Work>
    </rdf:RDF>
  </metadata>
  <defs id="defs3031"/>
  <rect x="550.0155" width="95.4285" height="847.5" y="0" id="rect3000" style="fill:#ff0000;fill-opacity:0.15"/>
  <rect x="550.0155" width="95.4285" height="565" y="0" id="rect3001" style="fill:#ff0000;fill-opacity:0.15"/>
  <rect x="550.0155" width="95.4285" height="282.5" y="0" id="rect3002" style="fill:#ff0000;fill-opacity:0.15"/>
  
	
	
	<path style="fill:#ff0000;fill-opacity:0.15" d="M 0,644.7784 A 847.5,847.5 1 0 0 550.0155,847.5 v -847.5 z" id="path3021"/>
	<path style="fill:#ff0000;fill-opacity:0.15" d="M 183.3385,429.8523 A 565,565 1 0 0 550.0155,565 v -565 z" id="path3021"/>
	<path style="fill:#ff0000;fill-opacity:0.15" d="M 366.677,214.9261 A 282.5,282.5 1 0 0 550.0155,282.5 v -282.5 z" id="path3021"/>
	
	
	<path style="fill:#ff0000;fill-opacity:0.15" d="M 1195.459,644.7784 A 847.5,847.5 0 0 1 645.444,847.5 v -847.5 z" id="path3021"/>
	<path style="fill:#ff0000;fill-opacity:0.15" d="M 1012.121,429.8523 A 565,565 0 0 1 645.444,565 v -565 z" id="path3021"/>
	<path style="fill:#ff0000;fill-opacity:0.15" d="M 828.7825,214.9261 A 282.5,282.5 0 0 1 645.444,282.5 v -282.5 z" id="path3021"/>
</svg>