<!-- Created with Inkscape (http://www.inkscape.org/) --><svg xmlns:rdf="http://www.w3.org/1999/02/22-rdf-syntax-ns#" width="859.608" xmlns:svg="http://www.w3.org/2000/svg" id="svg2" height="1497.898" xmlns:dc="http://purl.org/dc/elements/1.1/" xmlns:cc="http://creativecommons.org/ns#" xmlns="http://www.w3.org/2000/svg" version="1.1">
  <metadata id="metadata3033">
    <rdf:RDF>
      <cc:Work rdf:about="">
        <dc:format>image/svg+xml</dc:format>
        <dc:type rdf:resource="http://purl.org/dc/dcmitype/StillImage"/>
        <dc:title/>
      </cc:Work>
    </rdf:RDF>
  </metadata>
  <defs id="defs3031"/>
<rect x="12.108" width="847.5" id="rect3000" y="635.949" height="226" style="fill:#f789ff;fill-opacity:0.15"/>
  <rect x="12.108" width="565" id="rect3001" y="635.949" height="226" style="fill:#f789ff;fill-opacity:0.15"/>
  <rect x="12.108" width="282.5" id="rect3002" y="635.949" height="226" style="fill:#f789ff;fill-opacity:0.15"/>
  
	
	
	<path style="fill:#f789ff;fill-opacity:0.15" id="path3021" d="M 572.309,0 A 847.5,847.5 0 0 1 859.608,635.949 h -859.608 z"/>
	<path style="fill:#f789ff;fill-opacity:0.15" id="path3021" d="M 384.154,210.736 A 565,565 0 0 1 577.108,635.949 h -577.108 z"/>
	<path style="fill:#f789ff;fill-opacity:0.15" id="path3021" d="M 195.987,421.485 A 282.5,282.5 0 0 1 294.608,635.949 h -294.608 z"/>
	
	
	<path style="fill:#f789ff;fill-opacity:0.15" id="path3021" d="M 572.309,1497.898 A 847.5,847.5 1 0 0 859.608,861.949 h -859.608 z"/>
	<path style="fill:#f789ff;fill-opacity:0.15" id="path3021" d="M 384.154,1287.162 A 565,565 1 0 0 577.108,861.949 h -577.108 z"/>
	<path style="fill:#f789ff;fill-opacity:0.15" id="path3021" d="M 195.987,1076.413 A 282.5,282.5 1 0 0 294.608,861.949 h -294.608 z"/>
</svg>