<!-- Created with Inkscape (http://www.inkscape.org/) --><svg xmlns:rdf="http://www.w3.org/1999/02/22-rdf-syntax-ns#" width="857.625" xmlns:svg="http://www.w3.org/2000/svg" id="svg2" height="1452.434" xmlns:dc="http://purl.org/dc/elements/1.1/" xmlns:cc="http://creativecommons.org/ns#" xmlns="http://www.w3.org/2000/svg" version="1.1">
  <metadata id="metadata3033">
    <rdf:RDF>
      <cc:Work rdf:about="">
        <dc:format>image/svg+xml</dc:format>
        <dc:type rdf:resource="http://purl.org/dc/dcmitype/StillImage"/>
        <dc:title/>
      </cc:Work>
    </rdf:RDF>
  </metadata>
  <defs id="defs3031"/>
  <rect x="10.125" width="847.5" id="rect3000" y="640.717" height="171" style="fill:#ffa500;fill-opacity:0.15"/>
  <rect x="10.125" width="565" id="rect3001" y="640.717" height="171" style="fill:#ffa500;fill-opacity:0.15"/>
  <rect x="10.125" width="282.5" id="rect3002" y="640.717" height="171" style="fill:#ffa500;fill-opacity:0.15"/>
   
	
	
	<path style="fill:#ffa500;fill-opacity:0.15" id="path3021" d="M 564.867,0 A 847.5,847.5 0 0 1 857.625,640.717 h -857.625 z"/>
	<path style="fill:#ffa500;fill-opacity:0.15" id="path3021" d="M 378.035,211.92 A 565,565 0 0 1 575.125,640.717 h -575.125 z"/>
	<path style="fill:#ffa500;fill-opacity:0.15" id="path3021" d="M 191.181,423.864 A 282.5,282.5 1 0 1 292.625,640.717 h -292.625 z"/>
	
	
	<path style="fill:#ffa500;fill-opacity:0.15" id="path3021" d="M 564.867,1452.434 A 847.5,847.5 1 0 0 857.625,811.717 h -857.625 z"/>
	<path style="fill:#ffa500;fill-opacity:0.15" id="path3021" d="M 378.035,1240.514 A 565,565 1 0 0 575.125,811.717 h -575.125 z"/>
	<path style="fill:#ffa500;fill-opacity:0.15" id="path3021" d="M 191.181,1028.57 A 282.5,282.5 1 0 0 292.625,811.717 h -292.625 z"/>
</svg>