<!-- Created with Inkscape (http://www.inkscape.org/) --><svg xmlns:rdf="http://www.w3.org/1999/02/22-rdf-syntax-ns#" width="855.54" xmlns:svg="http://www.w3.org/2000/svg" id="svg2" height="1407.492" xmlns:dc="http://purl.org/dc/elements/1.1/" xmlns:cc="http://creativecommons.org/ns#" xmlns="http://www.w3.org/2000/svg" version="1.1">
  <metadata id="metadata3033">
    <rdf:RDF>
      <cc:Work rdf:about="">
        <dc:format>image/svg+xml</dc:format>
        <dc:type rdf:resource="http://purl.org/dc/dcmitype/StillImage"/>
        <dc:title/>
      </cc:Work>
    </rdf:RDF>
  </metadata>
  <defs id="defs3031"/>
  <rect x="0" width="847.5" id="rect3000" y="647.246" height="113" style="fill:#ff0000;fill-opacity:0.15"/>
  <rect x="282.5" width="565" id="rect3001" y="647.246" height="113" style="fill:#ff0000;fill-opacity:0.15"/>
  <rect x="565" width="282.5" id="rect3002" y="647.246" height="113" style="fill:#ff0000;fill-opacity:0.15"/>
   
	
	
	<path style="fill:#ff0000;fill-opacity:0.15" id="path3021" d="M 300.391,0 A 847.5,847.5 1 0 0 0,647.246 h 855.54 z"/>
	<path style="fill:#ff0000;fill-opacity:0.15" id="path3021" d="M 484.317,214.438 A 565,565 1 0 0 282.5,647.246 h 573.04 z"/>
	<path style="fill:#ff0000;fill-opacity:0.15" id="path3021" d="M 668.257,428.893 A 282.5,282.5 1 0 0 565,647.246 h 290.54 z"/>
	
	
	<path style="fill:#ff0000;fill-opacity:0.15" id="path3021" d="M 300.391,1407.492 A 847.5,847.5 0 0 1 0,760.246 h 855.54 z"/>
	<path style="fill:#ff0000;fill-opacity:0.15" id="path3021" d="M 484.317,1193.054 A 565,565 0 0 1 282.5,760.246 h 573.04 z"/>
	<path style="fill:#ff0000;fill-opacity:0.15" id="path3021" d="M 668.257,978.599 A 282.5,282.5 0 0 1 565,760.246 h 290.54 z"/>
</svg>