<!-- Created with Inkscape (http://www.inkscape.org/) --><svg xmlns:rdf="http://www.w3.org/1999/02/22-rdf-syntax-ns#" width="1198.031" xmlns:svg="http://www.w3.org/2000/svg" id="svg2" height="1808" xmlns:dc="http://purl.org/dc/elements/1.1/" xmlns:cc="http://creativecommons.org/ns#" xmlns="http://www.w3.org/2000/svg" version="1.1">
  <metadata id="metadata3033">
    <rdf:RDF>
      <cc:Work rdf:about="">
        <dc:format>image/svg+xml</dc:format>
        <dc:type rdf:resource="http://purl.org/dc/dcmitype/StillImage"/>
        <dc:title/>
      </cc:Work>
    </rdf:RDF>
  </metadata>
  <defs id="defs3031"/>
  <rect x="551.7557" width="94.52" height="847.5" y="0" id="rect3000" style="fill:#f789ff;fill-opacity:0.15"/>
  <rect x="551.7557" width="94.52" height="565" y="282.5" id="rect3001" style="fill:#f789ff;fill-opacity:0.15"/>
  <rect x="551.7557" width="94.52" height="282.5" y="565" id="rect3002" style="fill:#f789ff;fill-opacity:0.15"/>

  <rect x="551.7557" width="94.52" height="847.5" y="960.5" id="rect3000" style="fill:#f789ff;fill-opacity:0.15"/>
  <rect x="551.7557" width="94.52" height="565" y="960.5" id="rect3001" style="fill:#f789ff;fill-opacity:0.15"/>
  <rect x="551.7557" width="94.52" height="282.5" y="960.5" id="rect3002" style="fill:#f789ff;fill-opacity:0.15"/>
  
	
		<path style="fill:#f789ff;fill-opacity:0.15" d="M 0,204.2101 A 847.5,847.5 0 0 1 551.7557,0 v 847.5 z" id="path3021"/>
	<path style="fill:#f789ff;fill-opacity:0.15" d="M 183.9186,418.6401 A 565,565 0 0 1 551.7557,282.5 v 565 z" id="path3021"/>
	<path style="fill:#f789ff;fill-opacity:0.15" d="M 367.8372,633.07 A 282.5,282.5 0 0 1 551.7557,565 v 282.5 z" id="path3021"/>
	
	
	<path style="fill:#f789ff;fill-opacity:0.15" d="M 1198.031,204.2101 A 847.5,847.5 1 0 0 646.2757,0 v 847.5 z" id="path3021"/>
	<path style="fill:#f789ff;fill-opacity:0.15" d="M 1014.113,418.6401 A 565,565 1 0 0 646.2757,282.5 v 565 z" id="path3021"/>
	<path style="fill:#f789ff;fill-opacity:0.15" d="M 830.1943,633.07 A 282.5,282.5 1 0 0 646.2757,565 v 282.5 z" id="path3021"/>

	<path style="fill:#f789ff;fill-opacity:0.15" d="M 0,1603.7899 A 847.5,847.5 1 0 0 551.7557,1808 v -847.5 z" id="path3021"/>
	<path style="fill:#f789ff;fill-opacity:0.15" d="M 183.9186,1389.3599 A 565,565 1 0 0 551.7557,1525.5 v -565 z" id="path3021"/>
	<path style="fill:#f789ff;fill-opacity:0.15" d="M 367.8372,1174.93 A 282.5,282.5 1 0 0 551.7557,1243 v -282.5 z" id="path3021"/>
	
	
	<path style="fill:#f789ff;fill-opacity:0.15" d="M 1198.031,1603.7899 A 847.5,847.5 0 0 1 646.2757,1808 v -847.5 z" id="path3021"/>
	<path style="fill:#f789ff;fill-opacity:0.15" d="M 1014.113,1389.3599 A 565,565 0 0 1 646.2757,1525.5 v -565 z" id="path3021"/>
	<path style="fill:#f789ff;fill-opacity:0.15" d="M 830.1943,1174.93 A 282.5,282.5 0 0 1 646.2757,1243 v -282.5 z" id="path3021"/>
</svg>