<!-- Created with Inkscape (http://www.inkscape.org/) --><svg xmlns:rdf="http://www.w3.org/1999/02/22-rdf-syntax-ns#" width="1921" xmlns:svg="http://www.w3.org/2000/svg" id="svg2" height="960.5" xmlns:dc="http://purl.org/dc/elements/1.1/" xmlns:cc="http://creativecommons.org/ns#" xmlns="http://www.w3.org/2000/svg" version="1.1">
  <metadata id="metadata3033">
    <rdf:RDF>
      <cc:Work rdf:about="">
        <dc:format>image/svg+xml</dc:format>
        <dc:type rdf:resource="http://purl.org/dc/dcmitype/StillImage"/>
        <dc:title/>
      </cc:Work>
    </rdf:RDF>
  </metadata>
  <defs id="defs3031"/>
  <rect x="0" width="847.5" id="rect3016" y="0" height="113" style="fill:#c7c900;fill-opacity:0.25"/>
  <rect x="282.5" width="565" id="rect3017" y="0" height="113" style="fill:#c7c900;fill-opacity:0.25"/>
  <rect x="565" width="282.5" id="rect3018" y="0" height="113" style="fill:#c7c900;fill-opacity:0.25"/>
  <rect x="1073.5" width="847.5" id="rect3016" y="0" height="113" style="fill:#c7c900;fill-opacity:0.25"/>
  <rect x="1073.5" width="565" id="rect3017" y="0" height="113" style="fill:#c7c900;fill-opacity:0.25"/>
  <rect x="1073.5" width="282.5" id="rect3018" y="0" height="113" style="fill:#c7c900;fill-opacity:0.25"/>
	 
  <rect x="847.5" width="226" id="rect3016" y="113" height="847.5" style="fill:#c7c900;fill-opacity:0.25"/>
  <rect x="847.5" width="226" id="rect3017" y="113" height="565" style="fill:#c7c900;fill-opacity:0.25"/>
  <rect x="847.5" width="226" id="rect3018" y="113" height="282.5" style="fill:#c7c900;fill-opacity:0.25"/>
  
  <path style="fill:#c7c900;fill-opacity:0.25" d="M 847.5, 960.5 A 847.5,847.5 0 0 1 0,113 h 847.5" id="path3017"/>
  <path style="fill:#c7c900;fill-opacity:0.25" d="M 847.5, 678 A 565,565 0 0 1 282.5,113 h 565" id="path3017"/>
  <path style="fill:#c7c900;fill-opacity:0.25" d="M 847.5, 395.5 A 282.5,282.5 0 0 1 565,113 h 282.5" id="path3017"/>

    <path style="fill:#c7c900;fill-opacity:0.25" d="M 1921, 113 A 847.5,847.5 0 0 1 1073.5,960.5 v -847.5" id="path3017"/>
  <path style="fill:#c7c900;fill-opacity:0.25" d="M 1638.5, 113 A 565,565 0 0 1 1073.5,678 v -565" id="path3017"/>
  <path style="fill:#c7c900;fill-opacity:0.25" d="M 1356, 113 A 282.5,282.5 0 0 1 1073.5,395.5 v -282.5" id="path3017"/>
</svg>