<!-- Created with Inkscape (http://www.inkscape.org/) --><svg xmlns:rdf="http://www.w3.org/1999/02/22-rdf-syntax-ns#" width="1271.674" xmlns:svg="http://www.w3.org/2000/svg" id="svg2" height="847.5" xmlns:dc="http://purl.org/dc/elements/1.1/" xmlns:cc="http://creativecommons.org/ns#" xmlns="http://www.w3.org/2000/svg" version="1.1">
  <metadata id="metadata3033">
    <rdf:RDF>
      <cc:Work rdf:about="">
        <dc:format>image/svg+xml</dc:format>
        <dc:type rdf:resource="http://purl.org/dc/dcmitype/StillImage"/>
        <dc:title/>
      </cc:Work>
    </rdf:RDF>
  </metadata>
  <defs id="defs3031"/>
  <rect x="560.4618" width="150.75" id="rect3000" y="0" height="847.5" style="fill:#ff0000;fill-opacity:0.15"/>
  <rect x="560.4618" width="150.75" id="rect3001" y="282.5" height="565" style="fill:#ff0000;fill-opacity:0.15"/>
  <rect x="560.4618" width="150.75" id="rect3002" y="565" height="282.5" style="fill:#ff0000;fill-opacity:0.15"/>
  
	
	
	<path style="fill:#ff0000;fill-opacity:0.15" id="path3021" d="M 0,211.7809 A 847.5,847.5 0 0 1 560.4618,0 v 847.5 z"/>
	<path style="fill:#ff0000;fill-opacity:0.15" id="path3021" d="M 186.8206,423.6872 A 565,565 0 0 1 560.4618,282.5 v 565 z"/>
	<path style="fill:#ff0000;fill-opacity:0.15" id="path3021" d="M 373.6412,635.5936 A 282.5,282.5 0 0 1 560.4618,565 v 282.5 z"/>
	
	
	<path style="fill:#ff0000;fill-opacity:0.15" id="path3021" d="M 1271.674,211.7809 A 847.5,847.5 1 0 0 711.2118,0 v 847.5 z"/>
	<path style="fill:#ff0000;fill-opacity:0.15" id="path3021" d="M 1084.853,423.6872 A 565,565 1 0 0 711.2118,282.5 v 565 z"/>
	<path style="fill:#ff0000;fill-opacity:0.15" id="path3021" d="M 898.0324,635.5936 A 282.5,282.5 1 0 0 711.2118,565 v 282.5 z"/>
</svg>