<!-- Created with Inkscape (http://www.inkscape.org/) --><svg xmlns:rdf="http://www.w3.org/1999/02/22-rdf-syntax-ns#" width="1330.68" xmlns:svg="http://www.w3.org/2000/svg" id="svg2" height="847.5" xmlns:dc="http://purl.org/dc/elements/1.1/" xmlns:cc="http://creativecommons.org/ns#" xmlns="http://www.w3.org/2000/svg" version="1.1">
  <metadata id="metadata3033">
    <rdf:RDF>
      <cc:Work rdf:about="">
        <dc:format>image/svg+xml</dc:format>
        <dc:type rdf:resource="http://purl.org/dc/dcmitype/StillImage"/>
        <dc:title/>
      </cc:Work>
    </rdf:RDF>
  </metadata>
  <defs id="defs3031"/>
  <rect x="564.445" width="201.79" height="847.5" y="0" id="rect3000" style="fill:#ffa500;fill-opacity:0.15"/>
  <rect x="564.445" width="201.79" height="565" y="0" id="rect3001" style="fill:#ffa500;fill-opacity:0.15"/>
  <rect x="564.445" width="201.79" height="282.5" y="0" id="rect3002" style="fill:#ffa500;fill-opacity:0.15"/>
	
	
	<path style="fill:#ffa500;fill-opacity:0.15" d="M 0,632.1851 A 847.5,847.5 1 0 0 564.445,847.5 v -847.5 z" id="path3021"/>
	<path style="fill:#ffa500;fill-opacity:0.15" d="M 188.1484,421.4567 A 565,565 1 0 0 564.445,565 v -565 z" id="path3022"/>
	<path style="fill:#ffa500;fill-opacity:0.15" d="M 376.2967,210.7284 A 282.5,282.5 1 0 0 564.445,282.5 v -282.5 z" id="path3023"/>
	
	<path style="fill:#ffa500;fill-opacity:0.15" d="M 1330.68,632.1851 A 847.5,847.5 0 0 1 766.2351,847.5 v -847.5 z" id="path3021"/>
	<path style="fill:#ffa500;fill-opacity:0.15" d="M 1142.532,421.4567 A 565,565 0 0 1 766.2351,565 v -565 z" id="path3022"/>
	<path style="fill:#ffa500;fill-opacity:0.15" d="M 954.3834,210.7284 A 282.5,282.5 0 0 1 766.2351,282.5 v -282.5 z" id="path3023"/>
</svg>