<!-- Created with Inkscape (http://www.inkscape.org/) --><svg xmlns:rdf="http://www.w3.org/1999/02/22-rdf-syntax-ns#" width="1866" xmlns:svg="http://www.w3.org/2000/svg" id="svg2" height="933" xmlns:dc="http://purl.org/dc/elements/1.1/" xmlns:cc="http://creativecommons.org/ns#" xmlns="http://www.w3.org/2000/svg" version="1.1">
<metadata id="metadata3033">
  <rdf:RDF>
    <cc:Work rdf:about="">
      <dc:format>image/svg+xml</dc:format>
      <dc:type rdf:resource="http://purl.org/dc/dcmitype/StillImage"/>
      <dc:title/>
    </cc:Work>
  </rdf:RDF>
</metadata>
<defs id="defs3031"/>
<rect x="0" width="847.5" id="rect3016" y="0" height="85.5" style="fill:#ffa500;fill-opacity:0.25"/>
<rect x="282.5" width="565" id="rect3017" y="0" height="85.5" style="fill:#ffa500;fill-opacity:0.25"/>
<rect x="565" width="282.5" id="rect3018" y="0" height="85.5" style="fill:#ffa500;fill-opacity:0.25"/>
<rect x="1018.5" width="847.5" id="rect3016" y="0" height="85.5" style="fill:#ffa500;fill-opacity:0.25"/>
<rect x="1018.5" width="565" id="rect3017" y="0" height="85.5" style="fill:#ffa500;fill-opacity:0.25"/>
<rect x="1018.5" width="282.5" id="rect3018" y="0" height="85.5" style="fill:#ffa500;fill-opacity:0.25"/>

<rect x="847.5" width="171" id="rect3016" y="85.5" height="847.5" style="fill:#ffa500;fill-opacity:0.25"/>
<rect x="847.5" width="171" id="rect3017" y="85.5" height="565" style="fill:#ffa500;fill-opacity:0.25"/>
<rect x="847.5" width="171" id="rect3018" y="85.5" height="282.5" style="fill:#ffa500;fill-opacity:0.25"/>

<path style="fill:#ffa500;fill-opacity:0.25" d="M 847.5, 933 A 847.5,847.5 0 0 1 0,85.5 h 847.5" id="path3017"/>
<path style="fill:#ffa500;fill-opacity:0.25" d="M 847.5, 650.5 A 565,565 0 0 1 282.5,85.5 h 565" id="path3017"/>
<path style="fill:#ffa500;fill-opacity:0.25" d="M 847.5, 368 A 282.5,282.5 0 0 1 565,85.5 h 282.5" id="path3017"/>

<path style="fill:#ffa500;fill-opacity:0.25" d="M 1866, 85.5 A 847.5,847.5 0 0 1 1018.5,933 v -847.5" id="path3017"/>
<path style="fill:#ffa500;fill-opacity:0.25" d="M 1583.5, 85.5 A 565,565 0 0 1 1018.5,650.5 v -565" id="path3017"/>
<path style="fill:#ffa500;fill-opacity:0.25" d="M 1301, 85.5 A 282.5,282.5 0 0 1 1018.5,368 v -282.5" id="path3017"/>
</svg>