<!-- Created with Inkscape (http://www.inkscape.org/) --><svg xmlns:rdf="http://www.w3.org/1999/02/22-rdf-syntax-ns#" width="1808" xmlns:svg="http://www.w3.org/2000/svg" id="svg2" height="960.5" xmlns:dc="http://purl.org/dc/elements/1.1/" xmlns:cc="http://creativecommons.org/ns#" xmlns="http://www.w3.org/2000/svg" version="1.1">
  <metadata id="metadata3033">
    <rdf:RDF>
      <cc:Work rdf:about="">
        <dc:format>image/svg+xml</dc:format>
        <dc:type rdf:resource="http://purl.org/dc/dcmitype/StillImage"/>
        <dc:title/>
      </cc:Work>
    </rdf:RDF>
  </metadata>
  <defs id="defs3031"/>
  <rect x="0" width="847.5" id="rect3016" y="847.5" height="56.5" style="fill:#c7c900;fill-opacity:0.25"/>
  <rect x="282.5" width="565" id="rect3017" y="847.5" height="56.5" style="fill:#c7c900;fill-opacity:0.25"/>
  <rect x="565" width="282.5" id="rect3018" y="847.5" height="56.5" style="fill:#c7c900;fill-opacity:0.25"/>
  <rect x="960.5" width="847.5" id="rect3016" y="847.5" height="56.5" style="fill:#c7c900;fill-opacity:0.25"/>
  <rect x="960.5" width="565" id="rect3017" y="847.5" height="56.5" style="fill:#c7c900;fill-opacity:0.25"/>
  <rect x="960.5" width="282.5" id="rect3018" y="847.5" height="56.5" style="fill:#c7c900;fill-opacity:0.25"/>
	 
  <path style="fill:#c7c900;fill-opacity:0.25" d="M 300.392, 200.2551 A 847.5 ,847.5 1 0 0 0,847.5 h 855.54" id="path3017"/>
  <path style="fill:#c7c900;fill-opacity:0.25" d="M 484.317, 414.6925 A 565,565 1 0 0 282.5,847.5 h 573.04" id="path3017"/>
  <path style="fill:#c7c900;fill-opacity:0.25" d="M 668.257, 629.1475 A 282.5 ,282.5 1 0 0 565,847.5 h 290.54" id="path3017"/>

  
    <path style="fill:#c7c900;fill-opacity:0.25" d="M 1507.608,200.2551 A 847.5 ,847.5 0 0 1 1808,847.5 h -855.8396" id="path3017"/>
  <path style="fill:#c7c900;fill-opacity:0.25" d="M 1323.683,414.6925 A 565,565 0 0 1 1525.5,847.5 h -573.3296" id="path3017"/>
  <path style="fill:#c7c900;fill-opacity:0.25" d="M 1139.743,629.147 A 282.5 ,282.5 0 0 1 1243,847.5 h -290.8296" id="path3017"/>
  
 
</svg>