<!-- Created with Inkscape (http://www.inkscape.org/) --><svg xmlns:rdf="http://www.w3.org/1999/02/22-rdf-syntax-ns#" width="1808" xmlns:svg="http://www.w3.org/2000/svg" id="svg2" height="904" xmlns:dc="http://purl.org/dc/elements/1.1/" xmlns:cc="http://creativecommons.org/ns#" xmlns="http://www.w3.org/2000/svg" version="1.1">
<metadata id="metadata3033">
  <rdf:RDF>
    <cc:Work rdf:about="">
      <dc:format>image/svg+xml</dc:format>
      <dc:type rdf:resource="http://purl.org/dc/dcmitype/StillImage"/>
      <dc:title/>
    </cc:Work>
  </rdf:RDF>
</metadata>
<defs id="defs3031"/>
<rect x="0" width="847.5" id="rect3016" y="0" height="56.5" style="fill:#c8c8c8;fill-opacity:0.25"/>
<rect x="282.5" width="565" id="rect3017" y="0" height="56.5" style="fill:#c8c8c8;fill-opacity:0.25"/>
<rect x="565" width="282.5" id="rect3018" y="0" height="56.5" style="fill:#c8c8c8;fill-opacity:0.25"/>
<rect x="960.5" width="847.5" id="rect3016" y="0" height="56.5" style="fill:#c8c8c8;fill-opacity:0.25"/>
<rect x="960.5" width="565" id="rect3017" y="0" height="56.5" style="fill:#c8c8c8;fill-opacity:0.25"/>
<rect x="960.5" width="282.5" id="rect3018" y="0" height="56.5" style="fill:#c8c8c8;fill-opacity:0.25"/>

<rect x="847.5" width="113" id="rect3016" y="56.5" height="847.5" style="fill:#c8c8c8;fill-opacity:0.25"/>
<rect x="847.5" width="113" id="rect3017" y="56.5" height="565" style="fill:#c8c8c8;fill-opacity:0.25"/>
<rect x="847.5" width="113" id="rect3018" y="56.5" height="282.5" style="fill:#c8c8c8;fill-opacity:0.25"/>

<path style="fill:#c8c8c8;fill-opacity:0.25" d="M 847.5, 904 A 847.5,847.5 0 0 1 0,56.5 h 847.5" id="path3017"/>
<path style="fill:#c8c8c8;fill-opacity:0.25" d="M 847.5, 621.5 A 565,565 0 0 1 282.5,56.5 h 565" id="path3017"/>
<path style="fill:#c8c8c8;fill-opacity:0.25" d="M 847.5, 339 A 282.5,282.5 0 0 1 565,56.5 h 282.5" id="path3017"/>

<path style="fill:#c8c8c8;fill-opacity:0.25" d="M 1808, 56.5 A 847.5,847.5 0 0 1 960.5,904 v -847.5" id="path3017"/>
<path style="fill:#c8c8c8;fill-opacity:0.25" d="M 1525.5, 56.5 A 565,565 0 0 1 960.5,621.5 v -565" id="path3017"/>
<path style="fill:#c8c8c8;fill-opacity:0.25" d="M 1243, 56.5 A 282.5,282.5 0 0 1 960.5,339 v -282.5" id="path3017"/>
</svg>