<!-- Created with Inkscape (http://www.inkscape.org/) --><svg xmlns:rdf="http://www.w3.org/1999/02/22-rdf-syntax-ns#" width="1198.031" xmlns:svg="http://www.w3.org/2000/svg" id="svg2" height="847.5" xmlns:dc="http://purl.org/dc/elements/1.1/" xmlns:cc="http://creativecommons.org/ns#" xmlns="http://www.w3.org/2000/svg" version="1.1">
  <metadata id="metadata3033">
    <rdf:RDF>
      <cc:Work rdf:about="">
        <dc:format>image/svg+xml</dc:format>
        <dc:type rdf:resource="http://purl.org/dc/dcmitype/StillImage"/>
        <dc:title/>
      </cc:Work>
    </rdf:RDF>
  </metadata>
  <defs id="defs3031"/>
  <rect x="551.7557" width="94.52" id="rect3000" y="0" height="847.5" style="fill:#f789ff;fill-opacity:0.15"/>
  <rect x="551.7557" width="94.52" id="rect3001" y="0" height="565" style="fill:#f789ff;fill-opacity:0.15"/>
  <rect x="551.7557" width="94.52" id="rect3002" y="0" height="282.5" style="fill:#f789ff;fill-opacity:0.15"/>
  
	
	
	<path style="fill:#f789ff;fill-opacity:0.15" id="path3021" d="M 0,643.2899 A 847.5,847.5 1 0 0 551.7557,847.5 v -847.5 z"/>
	<path style="fill:#f789ff;fill-opacity:0.15" id="path3021" d="M 183.9186,428.8599 A 565,565 1 0 0 551.7557,565 v -565 z"/>
	<path style="fill:#f789ff;fill-opacity:0.15" id="path3021" d="M 367.8372,214.43 A 282.5,282.5 1 0 0 551.7557,282.5 v -282.5 z"/>
	
	
	<path style="fill:#f789ff;fill-opacity:0.15" id="path3021" d="M 1198.031,643.2899 A 847.5,847.5 0 0 1 646.2757,847.5 v -847.5 z"/>
	<path style="fill:#f789ff;fill-opacity:0.15" id="path3021" d="M 1014.113,428.8599 A 565,565 0 0 1 646.2757,565 v -565 z"/>
	<path style="fill:#f789ff;fill-opacity:0.15" id="path3021" d="M 830.1943,214.43 A 282.5,282.5 0 0 1 646.2757,282.5 v -282.5 z"/>
</svg>