<!-- Created with Inkscape (http://www.inkscape.org/) --><svg xmlns:rdf="http://www.w3.org/1999/02/22-rdf-syntax-ns#" width="1866" xmlns:svg="http://www.w3.org/2000/svg" id="svg2" height="960.5" xmlns:dc="http://purl.org/dc/elements/1.1/" xmlns:cc="http://creativecommons.org/ns#" xmlns="http://www.w3.org/2000/svg" version="1.1">
  <metadata id="metadata3033">
    <rdf:RDF>
      <cc:Work rdf:about="">
        <dc:format>image/svg+xml</dc:format>
        <dc:type rdf:resource="http://purl.org/dc/dcmitype/StillImage"/>
        <dc:title/>
      </cc:Work>
    </rdf:RDF>
  </metadata>
  <defs id="defs3031"/>
  <rect x="0" width="847.5" id="rect3016" y="847.5" height="56.5" style="fill:#00ff00;fill-opacity:0.25"/>
  <rect x="282.5" width="565" id="rect3017" y="847.5" height="56.5" style="fill:#00ff00;fill-opacity:0.25"/>
  <rect x="565" width="282.5" id="rect3018" y="847.5" height="56.5" style="fill:#00ff00;fill-opacity:0.25"/>
  <rect x="1018.5" width="847.5" id="rect3016" y="847.5" height="56.5" style="fill:#00ff00;fill-opacity:0.25"/>
  <rect x="1018.5" width="565" id="rect3017" y="847.5" height="56.5" style="fill:#00ff00;fill-opacity:0.25"/>
  <rect x="1018.5" width="282.5" id="rect3018" y="847.5" height="56.5" style="fill:#00ff00;fill-opacity:0.25"/>
	 
  <path style="fill:#00ff00;fill-opacity:0.25" d="M 292.758, 206.7842 A 847.5 ,847.5 1 0 0 0,847.5 h 857.625" id="path3017"/>
  <path style="fill:#00ff00;fill-opacity:0.25" d="M 479.59, 418.7035 A 565,565 1 0 0 282.5,847.5 h 575.125" id="path3017"/>
  <path style="fill:#00ff00;fill-opacity:0.25" d="M 666.444, 630.693 A 282.5 ,282.5 1 0 0 565,847.5 h 292.625" id="path3017"/>

  
    <path style="fill:#00ff00;fill-opacity:0.25" d="M 1573.242,206.7842 A 847.5 ,847.5 0 0 1 1866,847.5 h -855.8396" id="path3017"/>
  <path style="fill:#00ff00;fill-opacity:0.25" d="M 1386.41,418.7035 A 565,565 0 0 1 1583.5,847.5 h -573.3296" id="path3017"/>
  <path style="fill:#00ff00;fill-opacity:0.25" d="M 1199.556,630.693 A 282.5 ,282.5 0 0 1 1301,847.5 h -290.8296" id="path3017"/>
</svg>