<!-- Created with Inkscape (http://www.inkscape.org/) --><svg xmlns:rdf="http://www.w3.org/1999/02/22-rdf-syntax-ns#" width="859.608" xmlns:svg="http://www.w3.org/2000/svg" id="svg2" height="1502.328" xmlns:dc="http://purl.org/dc/elements/1.1/" xmlns:cc="http://creativecommons.org/ns#" xmlns="http://www.w3.org/2000/svg" version="1.1">
  <metadata id="metadata3033">
    <rdf:RDF>
      <cc:Work rdf:about="">
        <dc:format>image/svg+xml</dc:format>
        <dc:type rdf:resource="http://purl.org/dc/dcmitype/StillImage"/>
        <dc:title/>
      </cc:Work>
    </rdf:RDF>
  </metadata>
  <defs id="defs3031"/>
<rect x="12.108" width="847.5" id="rect3000" y="638.164" height="226" style="fill:#ff0000;fill-opacity:0.15"/>
  <rect x="12.108" width="565" id="rect3001" y="638.164" height="226" style="fill:#ff0000;fill-opacity:0.15"/>
  <rect x="12.108" width="282.5" id="rect3002" y="638.164" height="226" style="fill:#ff0000;fill-opacity:0.15"/>
  
	
	
	<path style="fill:#ff0000;fill-opacity:0.15" id="path3021" d="M 569.784,0 A 847.5,847.5 0 0 1 859.608,638.164 h -859.608 z"/>
	<path style="fill:#ff0000;fill-opacity:0.15" id="path3021" d="M 381.62,210.746 A 565,565 0 0 1 577.108,638.164 h -577.108 z"/>
	<path style="fill:#ff0000;fill-opacity:0.15" id="path3021" d="M 193.423,421.528 A 282.5,282.5 0 0 1 294.608,638.164 h -294.608 z"/>
	
	
	<path style="fill:#ff0000;fill-opacity:0.15" id="path3021" d="M 569.784,1502.328 A 847.5,847.5 1 0 0 859.608,864.164 h -859.608 z"/>
	<path style="fill:#ff0000;fill-opacity:0.15" id="path3021" d="M 381.62,1291.582 A 565,565 1 0 0 577.108,864.164 h -577.108 z"/>
	<path style="fill:#ff0000;fill-opacity:0.15" id="path3021" d="M 193.423,1080.8 A 282.5,282.5 1 0 0 294.608,864.164 h -294.608 z"/>
</svg>