<!-- Created with Inkscape (http://www.inkscape.org/) --><svg xmlns:rdf="http://www.w3.org/1999/02/22-rdf-syntax-ns#" width="855.54" xmlns:svg="http://www.w3.org/2000/svg" id="svg2" height="1407.492" xmlns:dc="http://purl.org/dc/elements/1.1/" xmlns:cc="http://creativecommons.org/ns#" xmlns="http://www.w3.org/2000/svg" version="1.1">
  <metadata id="metadata3033">
    <rdf:RDF>
      <cc:Work rdf:about="">
        <dc:format>image/svg+xml</dc:format>
        <dc:type rdf:resource="http://purl.org/dc/dcmitype/StillImage"/>
        <dc:title/>
      </cc:Work>
    </rdf:RDF>
  </metadata>
  <defs id="defs3031"/>
  <rect x="8.04" width="847.5" id="rect3000" y="647.246" height="113" style="fill:#ff4e00;fill-opacity:0.15"/>
  <rect x="8.04" width="565" id="rect3001" y="647.246" height="113" style="fill:#ff4e00;fill-opacity:0.15"/>
  <rect x="8.04" width="282.5" id="rect3002" y="647.246" height="113" style="fill:#ff4e00;fill-opacity:0.15"/>
   
	
	
	<path style="fill:#ff4e00;fill-opacity:0.15" id="path3021" d="M 555.149,0 A 847.5,847.5 0 0 1 855.54,647.246 h -855.54 z"/>
	<path style="fill:#ff4e00;fill-opacity:0.15" id="path3021" d="M 371.223,214.438 A 565,565 0 0 1 573.04,647.246 h -573.04 z"/>
	<path style="fill:#ff4e00;fill-opacity:0.15" id="path3021" d="M 187.283,428.893 A 282.5,282.5 0 0 1 290.54,647.246 h -290.54 z"/>
	
	
	<path style="fill:#ff4e00;fill-opacity:0.15" id="path3021" d="M 555.149,1407.492 A 847.5,847.5 1 0 0 855.54,760.246 h -855.54 z"/>
	<path style="fill:#ff4e00;fill-opacity:0.15" id="path3021" d="M 371.223,1193.054 A 565,565 1 0 0 573.04,760.246 h -573.04 z"/>
	<path style="fill:#ff4e00;fill-opacity:0.15" id="path3021" d="M 187.283,978.599 A 282.5,282.5 1 0 0 290.54,760.246 h -290.54 z"/>
</svg>