<!-- Created with Inkscape (http://www.inkscape.org/) --><svg xmlns:rdf="http://www.w3.org/1999/02/22-rdf-syntax-ns#" width="1866" xmlns:svg="http://www.w3.org/2000/svg" id="svg2" height="1452.434" xmlns:dc="http://purl.org/dc/elements/1.1/" xmlns:cc="http://creativecommons.org/ns#" xmlns="http://www.w3.org/2000/svg" version="1.1">
  <metadata id="metadata3033">
    <rdf:RDF>
      <cc:Work rdf:about="">
        <dc:format>image/svg+xml</dc:format>
        <dc:type rdf:resource="http://purl.org/dc/dcmitype/StillImage"/>
        <dc:title/>
      </cc:Work>
    </rdf:RDF>
  </metadata>
  <defs id="defs3031"/>
  <rect x="0" width="847.5" id="rect3000" y="640.717" height="171" style="fill:#f789ff;fill-opacity:0.15"/>
  <rect x="282.5" width="565" id="rect3001" y="640.717" height="171" style="fill:#f789ff;fill-opacity:0.15"/>
  <rect x="565" width="282.5" id="rect3002" y="640.717" height="171" style="fill:#f789ff;fill-opacity:0.15"/>
   

  <rect x="1018.5" width="847.5" id="rect3000" y="640.717" height="171" style="fill:#f789ff;fill-opacity:0.15"/>
  <rect x="1018.5" width="565" id="rect3001" y="640.717" height="171" style="fill:#f789ff;fill-opacity:0.15"/>
  <rect x="1018.5" width="282.5" id="rect3002" y="640.717" height="171" style="fill:#f789ff;fill-opacity:0.15"/>
   
	
<path style="fill:#f789ff;fill-opacity:0.15" id="path3021" d="M 292.758,0 A 847.5,847.5 1 0 0 0,640.717 h 857.625 z"/>
	<path style="fill:#f789ff;fill-opacity:0.15" id="path3021" d="M 479.59,211.92 A 565,565 1 0 0 282.5,640.717 h 575.125 z"/>
	<path style="fill:#f789ff;fill-opacity:0.15" id="path3021" d="M 666.444,423.864 A 282.5,282.5 1 0 0 565,640.717 h 292.625 z"/>
	
	
	
	<path style="fill:#f789ff;fill-opacity:0.15" id="path3021" d="M 1573.242,0 A 847.5,847.5 0 0 1 1866,640.717 h -857.625 z"/>
	<path style="fill:#f789ff;fill-opacity:0.15" id="path3021" d="M 1386.41,211.92 A 565,565 0 0 1 1583.5,640.717 h -575.125 z"/>
	<path style="fill:#f789ff;fill-opacity:0.15" id="path3021" d="M 1199.556,423.864 A 282.5,282.5 1 0 1 1301,640.717 h -292.625 z"/>
	
	
	<path style="fill:#f789ff;fill-opacity:0.15" id="path3021" d="M 292.758,1452.434 A 847.5,847.5 0 0 1 0,811.717 h 857.625 z"/>
	<path style="fill:#f789ff;fill-opacity:0.15" id="path3021" d="M 479.59,1240.514 A 565,565 0 0 1 282.5,811.717 h 575.125 z"/>
	<path style="fill:#f789ff;fill-opacity:0.15" id="path3021" d="M 666.444,1028.57 A 282.5,282.5 0 0 1 565,811.717 h 292.625 z"/>
	
	
	<path style="fill:#f789ff;fill-opacity:0.15" id="path3021" d="M 1573.242,1452.434 A 847.5,847.5 1 0 0 1866,811.717 h -857.625 z"/>
	<path style="fill:#f789ff;fill-opacity:0.15" id="path3021" d="M 1386.41,1240.514 A 565,565 1 0 0 1583.5,811.717 h -575.125 z"/>
	<path style="fill:#f789ff;fill-opacity:0.15" id="path3021" d="M 1199.556,1028.57 A 282.5,282.5 1 0 0 1301,811.717 h -292.625 z"/>
</svg>