<!-- Created with Inkscape (http://www.inkscape.org/) --><svg xmlns:rdf="http://www.w3.org/1999/02/22-rdf-syntax-ns#" width="858.6588" xmlns:svg="http://www.w3.org/2000/svg" id="svg2" height="1496.139" xmlns:dc="http://purl.org/dc/elements/1.1/" xmlns:cc="http://creativecommons.org/ns#" xmlns="http://www.w3.org/2000/svg" version="1.1">
    <metadata id="metadata3033">
        <rdf:RDF>
            <cc:Work rdf:about="">
                <dc:format>image/svg+xml</dc:format>
                <dc:type rdf:resource="http://purl.org/dc/dcmitype/StillImage"/>
                <dc:title/>
            </cc:Work>
        </rdf:RDF>
    </metadata>
    <defs id="defs3031"/>
    <rect x="0" width="847.5" height="226" y="635.0696" id="rect3000" style="fill:#f789ff;fill-opacity:0.15"/>
    <rect x="282.5" width="565" height="226" y="635.0696" id="rect3001" style="fill:#f789ff;fill-opacity:0.15"/>
    <rect x="565" width="282.5" height="226" y="635.0696" id="rect3002" style="fill:#f789ff;fill-opacity:0.15"/>



    <path style="fill:#f789ff;fill-opacity:0.15" d="M 286.3023,0 A 847.5,847.5 1 0 0 0,635.0696 h 858.6588 z" id="path3021"/>
    <path style="fill:#f789ff;fill-opacity:0.15" d="M 475.4429,209.8655 A 565,565 1 0 0 282.5,635.0696 h 576.15875 z" id="path3021"/>
    <path style="fill:#f789ff;fill-opacity:0.15" d="M 664.6111,419.7608 A 282.5,282.5 1 0 0 565,635.0696 h 293.65875 z" id="path3021"/>


    <path style="fill:#f789ff;fill-opacity:0.15" d="M 286.3023,1496.139 A 847.5,847.5 0 0 1 0,861.0696 h 858.6588 z" id="path3021"/>
    <path style="fill:#f789ff;fill-opacity:0.15" d="M 475.4429,1286.274 A 565,565 0 0 1 282.5,861.0696 h 576.15875 z" id="path3021"/>
    <path style="fill:#f789ff;fill-opacity:0.15" d="M 664.6111,1076.378 A 282.5,282.5 0 0 1 565,861.0696 h 293.65875 z" id="path3021"/>
</svg>