<!-- Created with Inkscape (http://www.inkscape.org/) --><svg xmlns:rdf="http://www.w3.org/1999/02/22-rdf-syntax-ns#" width="3051" xmlns:svg="http://www.w3.org/2000/svg" id="svg2" height="3376" xmlns:dc="http://purl.org/dc/elements/1.1/" xmlns:cc="http://creativecommons.org/ns#" xmlns="http://www.w3.org/2000/svg" version="1.1">
  <metadata id="metadata3033">
    <rdf:RDF>
      <cc:Work rdf:about="">
        <dc:format>image/svg+xml</dc:format>
        <dc:type rdf:resource="http://purl.org/dc/dcmitype/StillImage"/>
        <dc:title/>
      </cc:Work>
    </rdf:RDF>
  </metadata>
  <defs id="defs3031"/>
  <rect x="1412.5" width="226" height="1412.5" y="0" id="rect3000" style="fill:#ffa500;fill-opacity:0.15"/>
  <rect x="1412.5" width="226" height="1130" y="282.5" id="rect3001" style="fill:#ffa500;fill-opacity:0.15"/>
  <rect x="1412.5" width="226" height="847.5" y="565" id="rect3002" style="fill:#ffa500;fill-opacity:0.15"/>
  <rect x="1412.5" width="226" height="565" y="847.5" id="rect3003" style="fill:#ffa500;fill-opacity:0.15"/>
  <rect x="1412.5" width="226" height="282.5" y="1130" id="rect3004" style="fill:#ffa500;fill-opacity:0.15"/>
  
<rect x="1412.5" width="226" height="1412.5" y="1963.5" id="rect3000" style="fill:#ffa500;fill-opacity:0.15"/>
  <rect x="1412.5" width="226" height="1130" y="1963.5" id="rect3001" style="fill:#ffa500;fill-opacity:0.15"/>
  <rect x="1412.5" width="226" height="847.5" y="1963.5" id="rect3002" style="fill:#ffa500;fill-opacity:0.15"/>
  <rect x="1412.5" width="226" height="565" y="1963.5" id="rect3003" style="fill:#ffa500;fill-opacity:0.15"/>
  <rect x="1412.5" width="226" height="282.5" y="1963.5" id="rect3004" style="fill:#ffa500;fill-opacity:0.15"/>

<rect x="0" width="1412.5" height="551" y="1412.5" id="rect3000" style="fill:#ffa500;fill-opacity:0.15"/>
  <rect x="282.5" width="1130" height="551" y="1412.5" id="rect3001" style="fill:#ffa500;fill-opacity:0.15"/>
  <rect x="565" width="847.5" height="551" y="1412.5" id="rect3002" style="fill:#ffa500;fill-opacity:0.15"/>
  <rect x="847.5" width="565" height="551" y="1412.5" id="rect3003" style="fill:#ffa500;fill-opacity:0.15"/>
  <rect x="1130" width="282.5" height="551" y="1412.5" id="rect3004" style="fill:#ffa500;fill-opacity:0.15"/>

<rect x="1638.5" width="1412.5" height="551" y="1412.5" id="rect3000" style="fill:#ffa500;fill-opacity:0.15"/>
  <rect x="1638.5" width="1130" height="551" y="1412.5" id="rect3001" style="fill:#ffa500;fill-opacity:0.15"/>
  <rect x="1638.5" width="847.5" height="551" y="1412.5" id="rect3002" style="fill:#ffa500;fill-opacity:0.15"/>
  <rect x="1638.5" width="565" height="551" y="1412.5" id="rect3003" style="fill:#ffa500;fill-opacity:0.15"/>
  <rect x="1638.5" width="282.5" height="551" y="1412.5" id="rect3004" style="fill:#ffa500;fill-opacity:0.15"/>


    <path style="fill:#ffa500;fill-opacity:0.15" d="M 0,1412.5 A 1412.5,1412.5 0 0 1 1412.5,0 v 1412.5 z" id="path3011"/>
	<path style="fill:#ffa500;fill-opacity:0.15" d="M 282.5,1412.5 A 1130,1130 0 0 1 1412.5,282.5 v 1130 z" id="path3012"/>
	<path style="fill:#ffa500;fill-opacity:0.15" d="M 565,1412.5 A 847.5,847.5 0 0 1 1412.5 ,565 v 847.5 z" id="path3013"/>
	<path style="fill:#ffa500;fill-opacity:0.15" d="M 847.5,1412.5 A 565,565 0 0 1 1412.5,847.5 v 565 z" id="path3014"/>
	<path style="fill:#ffa500;fill-opacity:0.15" d="M 1130,1412.5 A 282.5,282.5 0 0 1 1412.5,1130 v 282.5 z" id="path3015"/>
	

	<path style="fill:#ffa500;fill-opacity:0.15" d="M 1638.5,0 A 1412.5,1412.5 0 0 1 3051,1412.5 h -1412.5 z" id="path3021"/>
	<path style="fill:#ffa500;fill-opacity:0.15" d="M 1638.5,282.5 A 1130,1130 0 0 1 2768.5,1412.5 h -1130 z" id="path3022"/>
	<path style="fill:#ffa500;fill-opacity:0.15" d="M 1638.5,565 A 847.5,847.5 0 0 1 2486,1412.5 h -847.5 z" id="path3023"/>
	<path style="fill:#ffa500;fill-opacity:0.15" d="M 1638.5,847.5 A 565,565 0 0 1 2203.5,1412.5 h -565 z" id="path3024"/>
	<path style="fill:#ffa500;fill-opacity:0.15" d="M 1638.5,1130 A 282.5,282.5 0 0 1 1921,1412.5  h -282.5 z" id="path3025"/>
	

    <path style="fill:#ffa500;fill-opacity:0.15" d="M 1412.5,3376 A 1412.5,1412.5 0 0 1 0,1963.5 h 1412.5 z" id="path3011"/>
	<path style="fill:#ffa500;fill-opacity:0.15" d="M 1412.5,3096.5 A 1130,1130 0 0 1 282.5,1963.5  h 1130 z" id="path3012"/>
	<path style="fill:#ffa500;fill-opacity:0.15" d="M 1412.5,2811 A 847.5,847.5 0 0 1 565,1963.5 h 847.5 z" id="path3013"/>
	<path style="fill:#ffa500;fill-opacity:0.15" d="M 1412.5,2528.5 A 565,565 0 0 1 847.5,1963.5  h 565 z" id="path3014"/>
	<path style="fill:#ffa500;fill-opacity:0.15" d="M 1412.5,2246 A 282.5,282.5 0 0 1 1130,1963.5  h 282.5 z" id="path3015"/>

	<path style="fill:#ffa500;fill-opacity:0.15" d="M 3051,1963.5 A 1412.5,1412.5 0 0 1 1638.5,3376 v -1412.5 z" id="path3021"/>
	<path style="fill:#ffa500;fill-opacity:0.15" d="M 2768.5,1963.5 A 1130,1130 0 0 1 1638.5,3093.5 v -1130 z" id="path3022"/>
	<path style="fill:#ffa500;fill-opacity:0.15" d="M 2486,1963.5 A 847.5,847.5 0 0 1 1638.5,2811 v -847.5 z" id="path3023"/>
	<path style="fill:#ffa500;fill-opacity:0.15" d="M 2203.5,1963.5 A 565,565 0 0 1 1638.5,2528.5 v -565 z" id="path3024"/>
	<path style="fill:#ffa500;fill-opacity:0.15" d="M 1921,1963.5 A 282.5,282.5 0 0 1 1638.5,2246  v -282.5 z" id="path3025"/>

</svg>