<!-- Created with Inkscape (http://www.inkscape.org/) --><svg xmlns:rdf="http://www.w3.org/1999/02/22-rdf-syntax-ns#" width="3051" xmlns:svg="http://www.w3.org/2000/svg" id="svg2" height="1963.5" xmlns:dc="http://purl.org/dc/elements/1.1/" xmlns:cc="http://creativecommons.org/ns#" xmlns="http://www.w3.org/2000/svg" version="1.1">
  <metadata id="metadata3033">
    <rdf:RDF>
      <cc:Work rdf:about="">
        <dc:format>image/svg+xml</dc:format>
        <dc:type rdf:resource="http://purl.org/dc/dcmitype/StillImage"/>
        <dc:title/>
      </cc:Work>
    </rdf:RDF>
  </metadata>
  <defs id="defs3031"/>
  <rect x="1377.85" width="226" height="1412.5" y="0" id="rect3000" style="fill:#00ff00;fill-opacity:0.15"/>
  <rect x="1377.85" width="226" height="1130" y="282.5" id="rect3001" style="fill:#00ff00;fill-opacity:0.15"/>
  <rect x="1377.85" width="226" height="847.5" y="565" id="rect3002" style="fill:#00ff00;fill-opacity:0.15"/>
  <rect x="1377.85" width="226" height="565" y="847.5" id="rect3003" style="fill:#00ff00;fill-opacity:0.15"/>
  <rect x="1377.85" width="226" height="282.5" y="1130" id="rect3004" style="fill:#00ff00;fill-opacity:0.15"/>
  
    <path style="fill:#00ff00;fill-opacity:0.15" d="M 1377.85,0 V 1638.5 L 0,1327.57 A 1412.5,1412.5 0 0 1 1377.85,0" id="path3011"/>
	<path style="fill:#00ff00;fill-opacity:0.15" d="M 1377.85,282.5 V 1638.5 L 275.57,1389.75 A 1130,1130 0 0 1 1377.85,282.5" id="path3012"/>
	<path style="fill:#00ff00;fill-opacity:0.15" d="M 530.35,1412.5 A 847.5,847.5 0 0 1 1377.85,565 V 1638.5 L 530.35,1447.25 z" id="path3013"/>
	<path style="fill:#00ff00;fill-opacity:0.15" d="M 812.85,1412.5 A 565,565 0 0 1 1377.85,847.5 V 1638.5 L 812.85,1511 z" id="path3014"/>
	<path style="fill:#00ff00;fill-opacity:0.15" d="M 1095.35,1412.5 A 282.5,282.5 0 0 1 1377.85,1130 V 1638.5 L 1095.35,1574.75 z" id="path3015"/>
</svg>