<!-- Created with Inkscape (http://www.inkscape.org/) --><svg xmlns:rdf="http://www.w3.org/1999/02/22-rdf-syntax-ns#" width="2942.86" xmlns:svg="http://www.w3.org/2000/svg" id="svg2" height="1963.5" xmlns:dc="http://purl.org/dc/elements/1.1/" xmlns:cc="http://creativecommons.org/ns#" xmlns="http://www.w3.org/2000/svg" version="1.1">
  <metadata id="metadata3033">
    <rdf:RDF>
      <cc:Work rdf:about="">
        <dc:format>image/svg+xml</dc:format>
        <dc:type rdf:resource="http://purl.org/dc/dcmitype/StillImage"/>
        <dc:title/>
      </cc:Work>
    </rdf:RDF>
  </metadata>
  <defs id="defs3031"/>
  <rect x="1358.43" width="226" height="1412.5" y="0" id="rect3000" style="fill:#00ff00;fill-opacity:0.15"/>
  <rect x="1358.43" width="226" height="1130" y="282.5" id="rect3001" style="fill:#00ff00;fill-opacity:0.15"/>
  <rect x="1358.43" width="226" height="847.5" y="565" id="rect3002" style="fill:#00ff00;fill-opacity:0.15"/>
  <rect x="1358.43" width="226" height="565" y="847.5" id="rect3003" style="fill:#00ff00;fill-opacity:0.15"/>
  <rect x="1358.43" width="226" height="282.5" y="1130" id="rect3004" style="fill:#00ff00;fill-opacity:0.15"/>
  
    <path style="fill:#00ff00;fill-opacity:0.15" d="M 0,1025.44 A 1412.5,1412.5 0 0 1 1358.43,0 V 1638.5 z" id="path3011"/>
	<path style="fill:#00ff00;fill-opacity:0.15" d="M 260.98,1143.22 A 1130,1130 0 0 1 1358.43,282.5 V 1638.5 z" id="path3012"/>
	<path style="fill:#00ff00;fill-opacity:0.15" d="M 524.38,1262.09 A 847.5,847.5 0 0 1 1358.43,565 V 1638.5  z" id="path3013"/>
	<path style="fill:#00ff00;fill-opacity:0.15" d="M 794.157,1383.84 A 565,565 0 0 1 1358.43,847.5 V 1638.5 z" id="path3014"/>
	<path style="fill:#00ff00;fill-opacity:0.15" d="M 1075.93,1412.5 A 282.5,282.5 0 0 1 1358.43,1130 V 1638.5 L 1075.93,1511.001 z" id="path3015"/>
	

	<path style="fill:#00ff00;fill-opacity:0.15" d="M 1584.43,0 A 1412.5,1412.5 0 0 1 2942.86,1025.44 L 1584.43,1638.5 z" id="path3021"/>
	<path style="fill:#00ff00;fill-opacity:0.15" d="M 1584.43,282.5 A 1130,1130 0 0 1 2681.88,1143.22 L 1584.43,1638.5 z" id="path3022"/>
	<path style="fill:#00ff00;fill-opacity:0.15" d="M 2418.48,1262.09 A 847.5,847.5 1 0 0 1584.43,565 V 1638.5 z" id="path3023"/>
	<path style="fill:#00ff00;fill-opacity:0.15" d="M 2148.703,1383.84 A 565,565 1 0 0 1584.43,847.5 V 1638.5  z" id="path3024"/>
	<path style="fill:#00ff00;fill-opacity:0.15" d="M 1866.93,1412.5 A 282.5,282.5 1 0 0 1584.43,1130 V 1638.5 L 1866.93,1511.001 z" id="path3025"/>
	
</svg>