<!-- Created with Inkscape (http://www.inkscape.org/) --><svg xmlns:rdf="http://www.w3.org/1999/02/22-rdf-syntax-ns#" width="1921" xmlns:svg="http://www.w3.org/2000/svg" id="svg2" height="960.5" xmlns:dc="http://purl.org/dc/elements/1.1/" xmlns:cc="http://creativecommons.org/ns#" xmlns="http://www.w3.org/2000/svg" version="1.1">
  <metadata id="metadata3033">
    <rdf:RDF>
      <cc:Work rdf:about="">
        <dc:format>image/svg+xml</dc:format>
        <dc:type rdf:resource="http://purl.org/dc/dcmitype/StillImage"/>
        <dc:title/>
      </cc:Work>
    </rdf:RDF>
  </metadata>
  <defs id="defs3031"/>
  <rect x="0" width="847.5" id="rect3016" y="847.5" height="113" style="fill:#ffa500;fill-opacity:0.25"/>
  <rect x="282.5" width="565" id="rect3017" y="847.5" height="113" style="fill:#ffa500;fill-opacity:0.25"/>
  <rect x="565" width="282.5" id="rect3018" y="847.5" height="113" style="fill:#ffa500;fill-opacity:0.25"/>
  <rect x="1073.5" width="847.5" id="rect3016" y="847.5" height="113" style="fill:#ffa500;fill-opacity:0.25"/>
  <rect x="1073.5" width="565" id="rect3017" y="847.5" height="113" style="fill:#ffa500;fill-opacity:0.25"/>
  <rect x="1073.5" width="282.5" id="rect3018" y="847.5" height="113" style="fill:#ffa500;fill-opacity:0.25"/>
	 
  <path style="fill:#ffa500;fill-opacity:0.25" id="path3017" d="M 286.322, 212.412 A 847.5 ,847.5 1 0 0 0,847.5 h 858.6588"/>
  <path style="fill:#ffa500;fill-opacity:0.25" id="path3017" d="M 475.457, 422.2845 A 565,565 1 0 0 282.5,847.5 h 576.1588"/>
  <path style="fill:#ffa500;fill-opacity:0.25" id="path3017" d="M 664.618, 632.1849 A 282.5 ,282.5 1 0 0 565,847.5 h 293.6588"/>

  
    <path style="fill:#ffa500;fill-opacity:0.25" id="path3017" d="M 1634.678,212.412 A 847.5 ,847.5 0 0 1 1921,847.5 h -858.6588"/>
  <path style="fill:#ffa500;fill-opacity:0.25" id="path3017" d="M 1445.543,422.2845 A 565,565 0 0 1 1638.5,847.5 h -576.1588"/>
  <path style="fill:#ffa500;fill-opacity:0.25" id="path3017" d="M 1256.382,632.1849 A 282.5 ,282.5 0 0 1 1356,847.5 h -293.6588"/>
  
 
</svg>