<!-- Created with Inkscape (http://www.inkscape.org/) --><svg xmlns:rdf="http://www.w3.org/1999/02/22-rdf-syntax-ns#" width="3051" xmlns:svg="http://www.w3.org/2000/svg" id="svg2" height="3460" xmlns:dc="http://purl.org/dc/elements/1.1/" xmlns:cc="http://creativecommons.org/ns#" xmlns="http://www.w3.org/2000/svg" version="1.1">
  <metadata id="metadata3033">
    <rdf:RDF>
      <cc:Work rdf:about="">
        <dc:format>image/svg+xml</dc:format>
        <dc:type rdf:resource="http://purl.org/dc/dcmitype/StillImage"/>
        <dc:title/>
      </cc:Work>
    </rdf:RDF>
  </metadata>
  <defs id="defs3031"/>
  <rect x="0" width="1412.5" id="rect3000" y="1412.5" height="226" style="fill:#ff0000;fill-opacity:0.15"/>
  <rect x="282.5" width="1130" id="rect3001" y="1412.5" height="226" style="fill:#ff0000;fill-opacity:0.15"/>
  <rect x="565" width="847.5" id="rect3002" y="1412.5" height="226" style="fill:#ff0000;fill-opacity:0.15"/>
  <rect x="847.5" width="565" id="rect3003" y="1412.5" height="226" style="fill:#ff0000;fill-opacity:0.15"/>
  <rect x="1130" width="282.5" id="rect3004" y="1412.5" height="226" style="fill:#ff0000;fill-opacity:0.15"/>


<rect x="1638.5" width="1412.5" id="rect3000" y="1412.5" height="226" style="fill:#ff0000;fill-opacity:0.15"/>
  <rect x="1638.5" width="1130" id="rect3001" y="1412.5" height="226" style="fill:#ff0000;fill-opacity:0.15"/>
  <rect x="1638.5" width="847.5" id="rect3002" y="1412.5" height="226" style="fill:#ff0000;fill-opacity:0.15"/>
  <rect x="1638.5" width="565" id="rect3003" y="1412.5" height="226" style="fill:#ff0000;fill-opacity:0.15"/>
  <rect x="1638.5" width="282.5" id="rect3004" y="1412.5" height="226" style="fill:#ff0000;fill-opacity:0.15"/>
	 
	 
  <path style="fill:#ff0000;fill-opacity:0.15" id="path3011" d="M 0,1412.5 A 1412.5,1412.5 0 0 1 413.712,413.712 L 1412.5,1412.5 z"/>
  <path style="fill:#ff0000;fill-opacity:0.15" id="path3011" d="M 282.5,1412.5 A 1130,1130 0 0 1 613.469,613.469 L 1412.5,1412.5 z"/>	 
 <path style="fill:#ff0000;fill-opacity:0.15" id="path3011" d="M 565,1412.5 A 847.5,847.5 0 0 1 813.227,813.227 L 1412.5,1412.5 z"/>	
 <path style="fill:#ff0000;fill-opacity:0.15" id="path3011" d="M 847.5,1412.5 A 565,565 0 0 1 1012.985,1012.985 L 1412.5,1412.5 z"/>	
 <path style="fill:#ff0000;fill-opacity:0.15" id="path3011" d="M 1130,1412.5 A 282.5,282.5 0 0 1 1212.742,1212.742 L 1412.5,1412.5 z"/>		

  <path style="fill:#ff0000;fill-opacity:0.15" id="path3011" d="M 1638.5,1412.5 L 1838.258,1212.742 A 282.5,282.5 0 0 1 1921,1412.5 z"/>
  <path style="fill:#ff0000;fill-opacity:0.15" id="path3011" d="M 1638.5,1412.5 L 2038.015,1012.985 A 565,565 0 0 1 2203.5,1412.5 z"/>	 
 <path style="fill:#ff0000;fill-opacity:0.15" id="path3011" d="M 1638.5,1412.5 L 2237.773,813.227 A 847.5,847.5 0 0 1 2486,1412.5 z"/>	
 <path style="fill:#ff0000;fill-opacity:0.15" id="path3011" d="M 1638.5,1412.5 L 2437.531,613.4693  A 1130,1130 0 0 1 2768.5,1412.5 z"/>	
 <path style="fill:#ff0000;fill-opacity:0.15" id="path3011" d="M 1638.5,1412.5 L 2637.288,413.712 A 1412.5,1412.5 0 0 1 3051,1412.5 z"/>	 

  <path style="fill:#ff0000;fill-opacity:0.15" id="path4000" d="M 1412.5,1638.5 L 1212.742,1838.258 A 282.5,282.5 0 0 1 1130,1638.5 z"/>
  <path style="fill:#ff0000;fill-opacity:0.15" id="path4000" d="M 1412.5,1638.5 L 1012.985,2038.015 A 565,565 0 0 1 847.5,1638.5 z"/>
  <path style="fill:#ff0000;fill-opacity:0.15" id="path4000" d="M 1412.5,1638.5 L 813.227,2237.773 A 847.5,847.5 0 0 1 565,1638.5 z"/>
  <path style="fill:#ff0000;fill-opacity:0.15" id="path4000" d="M 1412.5,1638.5 L 613.4693,2437.531 A 1130,1130 0 0 1 282.5,1638.5 z"/>
  <path style="fill:#ff0000;fill-opacity:0.15" id="path4000" d="M 1412.5,1638.5 L 413.7117,2637.288 A 1412.5,1412.5 0 0 1 0,1638.5 z"/>
	 
  <path style="fill:#ff0000;fill-opacity:0.15" id="path4000" d="M 1638.5,1638.5 L 1838.258,1838.258 A 282.5,282.5 0 0 0 1921,1638.5 z"/>
  <path style="fill:#ff0000;fill-opacity:0.15" id="path4000" d="M 1638.5,1638.5 L 2038.015,2038.015 A 565,565 0 0 0 2203.5,1638.5 z"/>
  <path style="fill:#ff0000;fill-opacity:0.15" id="path4000" d="M 1638.5,1638.5 L 2237.773,2237.773 A 847.5,847.5 0 0 0 2486,1638.5 z"/>
  <path style="fill:#ff0000;fill-opacity:0.15" id="path4000" d="M 1638.5,1638.5 L 2437.531,2437.531 A 1130,1130 0 0 0 2768.5,1638.5 z"/>
  <path style="fill:#ff0000;fill-opacity:0.15" id="path4000" d="M 1638.5,1638.5 L 2637.288,2637.288 A 1412.5,1412.5 0 0 0 3051,1638.5 z"/>
	 
	 
  
</svg>