<!-- Created with Inkscape (http://www.inkscape.org/) --><svg xmlns:rdf="http://www.w3.org/1999/02/22-rdf-syntax-ns#" width="1921" xmlns:svg="http://www.w3.org/2000/svg" id="svg2" height="1921" xmlns:dc="http://purl.org/dc/elements/1.1/" xmlns:cc="http://creativecommons.org/ns#" xmlns="http://www.w3.org/2000/svg" version="1.1">
  <metadata id="metadata3033">
    <rdf:RDF>
      <cc:Work rdf:about="">
        <dc:format>image/svg+xml</dc:format>
        <dc:type rdf:resource="http://purl.org/dc/dcmitype/StillImage"/>
        <dc:title/>
      </cc:Work>
    </rdf:RDF>
  </metadata>
  <defs id="defs3031"/>
  <rect x="847.5" width="226" id="rect3000" y="0" height="847.5" style="fill:#00ff00;fill-opacity:0.15"/>
  <rect x="847.5" width="226" id="rect3001" y="282.5" height="565" style="fill:#00ff00;fill-opacity:0.15"/>
  <rect x="847.5" width="226" id="rect3002" y="565" height="282.5" style="fill:#00ff00;fill-opacity:0.15"/>
  
  <rect x="847.5" width="226" id="rect3000" y="1073.5" height="847.5" style="fill:#00ff00;fill-opacity:0.15"/>
  <rect x="847.5" width="226" id="rect3001" y="1073.5" height="565" style="fill:#00ff00;fill-opacity:0.15"/>
  <rect x="847.5" width="226" id="rect3002" y="1073.5" height="282.5" style="fill:#00ff00;fill-opacity:0.15"/>  
  
  <rect x="0" width="847.5" id="rect3000" y="847.5" height="226" style="fill:#00ff00;fill-opacity:0.15"/>
  <rect x="282.5" width="565" id="rect3001" y="847.5" height="226" style="fill:#00ff00;fill-opacity:0.15"/>
  <rect x="565" width="282.5" id="rect3002" y="847.5" height="226" style="fill:#00ff00;fill-opacity:0.15"/>
  	
  <rect x="1073.5" width="847.5" id="rect3000" y="847.5" height="226" style="fill:#00ff00;fill-opacity:0.15"/>
  <rect x="1073.5" width="565" id="rect3001" y="847.5" height="226" style="fill:#00ff00;fill-opacity:0.15"/>
  <rect x="1073.5" width="282.5" id="rect3002" y="847.5" height="226" style="fill:#00ff00;fill-opacity:0.15"/>
  		
	<path style="fill:#ff4e00;fill-opacity:0.15" id="path3021" d="M 0,847.5 A 847.5,847.5 0 0 1 847.5,0 v 847.5 z"/>
	<path style="fill:#ff4e00;fill-opacity:0.15" id="path3021" d="M 282.5,847.5 A 565,565 0 0 1 847.5,282.5 v 565 z"/>
	<path style="fill:#ff4e00;fill-opacity:0.15" id="path3021" d="M 565,847.5 A 282.5,282.5 0 0 1 847.5,565 v 282.5 z"/>
	
	<path style="fill:#ff4e00;fill-opacity:0.15" id="path3021" d="M 1073.5,0 A 847.5,847.5 0 0 1 1921,847.5 h -847.5 z"/>
	<path style="fill:#ff4e00;fill-opacity:0.15" id="path3021" d="M 1073.5,282.5 A 565,565 0 0 1 1638.5,847.5 h -565 z"/>
	<path style="fill:#ff4e00;fill-opacity:0.15" id="path3021" d="M 1073.5,565 A 282.5,282.5 0 0 1 1356,847.5 h -282.5 z"/>	

	<path style="fill:#ff4e00;fill-opacity:0.15" id="path3021" d="M 1921,1073.5 A 847.5,847.5 0 0 1 1073.5,1921 v -847.5 z"/>
	<path style="fill:#ff4e00;fill-opacity:0.15" id="path3021" d="M 1638.5,1073.5 A 565,565 0 0 1 1073.5,1638.5 v -565 z"/>
	<path style="fill:#ff4e00;fill-opacity:0.15" id="path3021" d="M 1356,1073.5 A 282.5,282.5 0 0 1 1073.5,1356 v -282.5 z"/>	

	<path style="fill:#ff4e00;fill-opacity:0.15" id="path3021" d="M 847.5,1921 A 847.5,847.5 0 0 1 0,1073.5 h 847.5 z"/>
	<path style="fill:#ff4e00;fill-opacity:0.15" id="path3021" d="M 847.5,1638.5 A 565,565 0 0 1 282.5,1073.5 h 565 z"/>
	<path style="fill:#ff4e00;fill-opacity:0.15" id="path3021" d="M 847.5,1356 A 282.5,282.5 0 0 1 565,1073.5 h 282.5 z"/>
</svg>